<mxfile host="app.diagrams.net" modified="2022-06-30T14:00:03.454Z" agent="5.0 (Windows NT 10.0; Win64; x64) AppleWebKit/537.36 (KHTML, like Gecko) Chrome/103.0.0.0 Safari/537.36" etag="_OlMB-k_soG88xToctV2" version="20.0.4" type="github">
  <diagram name="Page-1" id="7a6c530e-6e37-e111-ec74-82921da8cc10">
    <mxGraphModel dx="1422" dy="762" grid="0" gridSize="10" guides="1" tooltips="1" connect="1" arrows="1" fold="1" page="1" pageScale="1.5" pageWidth="1169" pageHeight="826" background="#EBFFF4" math="0" shadow="0">
      <root>
        <mxCell id="0" style=";html=1;" />
        <mxCell id="1" style=";html=1;" parent="0" />
        <mxCell id="23046e2b9bb16c14-64" value="" style="rounded=1;whiteSpace=wrap;html=1;shadow=0;strokeWidth=2;fontSize=12;align=center;arcSize=3;verticalAlign=top;fillColor=#b0e3e6;strokeColor=#0e8088;" parent="1" vertex="1">
          <mxGeometry x="1418" y="188" width="210" height="431" as="geometry" />
        </mxCell>
        <mxCell id="23046e2b9bb16c14-27" value="" style="rounded=1;whiteSpace=wrap;html=1;shadow=0;strokeWidth=2;fillColor=#9CD1FF;fontSize=12;fontColor=#ffffff;align=center;strokeColor=#432D57;arcSize=3;" parent="1" vertex="1">
          <mxGeometry x="606" y="190" width="637" height="431" as="geometry" />
        </mxCell>
        <mxCell id="23046e2b9bb16c14-28" value="&lt;font color=&quot;#000000&quot;&gt;On-premise network&lt;/font&gt;" style="rounded=1;whiteSpace=wrap;html=1;shadow=0;strokeWidth=2;fillColor=#dae8fc;fontSize=12;align=center;strokeColor=#6c8ebf;arcSize=6;verticalAlign=top;" parent="1" vertex="1">
          <mxGeometry x="260" y="194" width="280" height="421" as="geometry" />
        </mxCell>
        <mxCell id="23046e2b9bb16c14-1" value="" style="rounded=1;whiteSpace=wrap;html=1;shadow=0;strokeWidth=2;fillColor=none;fontSize=12;fontColor=#000000;align=center;strokeColor=#FFFFFF;" parent="1" vertex="1">
          <mxGeometry x="612" y="286" width="624" height="326" as="geometry" />
        </mxCell>
        <mxCell id="23046e2b9bb16c14-48" value="Azure Vnet" style="shadow=0;dashed=0;html=1;strokeColor=none;fillColor=#FFFFFF;labelPosition=center;verticalLabelPosition=bottom;verticalAlign=top;shape=mxgraph.office.clouds.azure;rounded=1;fontSize=12;fontColor=#FFFFFF;align=center;" parent="1" vertex="1">
          <mxGeometry x="632" y="210" width="83" height="53" as="geometry" />
        </mxCell>
        <mxCell id="23046e2b9bb16c14-71" style="edgeStyle=orthogonalEdgeStyle;html=1;startArrow=none;startFill=0;startSize=10;endArrow=none;endFill=0;endSize=10;strokeWidth=3;fontSize=11;fontColor=#FFFFFF;strokeColor=#4D4D4D;dashed=1;rounded=0;entryX=0.5;entryY=0.895;entryDx=0;entryDy=0;entryPerimeter=0;exitX=0.5;exitY=1;exitDx=0;exitDy=0;exitPerimeter=0;" parent="1" source="24964f25f45c63f1-4" target="23046e2b9bb16c14-62" edge="1">
          <mxGeometry relative="1" as="geometry">
            <Array as="points">
              <mxPoint x="405" y="633" />
              <mxPoint x="570" y="633" />
              <mxPoint x="570" y="560" />
              <mxPoint x="574" y="560" />
            </Array>
            <mxPoint x="470" y="600" as="sourcePoint" />
            <mxPoint x="750" y="630" as="targetPoint" />
          </mxGeometry>
        </mxCell>
        <mxCell id="24964f25f45c63f1-4" value="&lt;font color=&quot;#000000&quot;&gt;Gateway&lt;/font&gt;" style="shadow=0;dashed=0;html=1;strokeColor=none;shape=mxgraph.mscae.enterprise.gateway;fillColor=#4D4D4D;rounded=0;fontSize=12;fontColor=#FFFFFF;align=center;labelPosition=center;verticalLabelPosition=top;verticalAlign=bottom;gradientColor=#4D4D4D;" parent="1" vertex="1">
          <mxGeometry x="380" y="560" width="50" height="50" as="geometry" />
        </mxCell>
        <mxCell id="23046e2b9bb16c14-81" value="A" style="text;html=1;strokeColor=none;fillColor=none;align=center;verticalAlign=middle;whiteSpace=wrap;rounded=1;shadow=0;fontSize=11;fontColor=#FFFFFF;fontStyle=1" parent="1" vertex="1">
          <mxGeometry x="666" y="566" width="20" height="20" as="geometry" />
        </mxCell>
        <mxCell id="23046e2b9bb16c14-113" value="&lt;font color=&quot;#000000&quot;&gt;Architecture Manufacturing POC&lt;/font&gt;" style="text;strokeColor=none;fillColor=none;html=1;fontSize=24;fontStyle=1;verticalAlign=middle;align=center;rounded=0;shadow=0;fontColor=#FFFFFF;" parent="1" vertex="1">
          <mxGeometry x="190" y="120" width="1510" height="40" as="geometry" />
        </mxCell>
        <mxCell id="23046e2b9bb16c14-114" value="&lt;font size=&quot;1&quot; color=&quot;#000000&quot;&gt;&lt;b style=&quot;font-size: 14px&quot;&gt;Batch Load Mode&lt;/b&gt;&lt;/font&gt;" style="text;html=1;strokeColor=none;fillColor=none;align=center;verticalAlign=middle;whiteSpace=wrap;rounded=0;shadow=0;fontSize=10;fontColor=#009BFF;" parent="1" vertex="1">
          <mxGeometry x="150" y="160" width="1526" height="20" as="geometry" />
        </mxCell>
        <mxCell id="23046e2b9bb16c14-62" value="&lt;font style=&quot;font-size: 13px&quot; color=&quot;#4d4d4d&quot;&gt;&lt;b&gt;Firewall&lt;/b&gt;&lt;/font&gt;" style="shadow=0;dashed=0;html=1;strokeColor=none;labelPosition=center;verticalLabelPosition=bottom;verticalAlign=top;shape=mxgraph.office.concepts.firewall;fillColor=#666666;rounded=1;fontSize=11;fontColor=#FFFFFF;align=center;spacingLeft=5;" parent="1" vertex="1">
          <mxGeometry x="550" y="513" width="47" height="43" as="geometry" />
        </mxCell>
        <mxCell id="qJcnOCHqLsN_xk-ZRlv9-8" value="" style="shape=image;imageAspect=0;aspect=fixed;verticalLabelPosition=bottom;verticalAlign=top;fontSize=14;fontColor=#FFFFFF;image=https://upload.wikimedia.org/wikipedia/commons/thumb/a/a8/Microsoft_Azure_Logo.svg/1200px-Microsoft_Azure_Logo.svg.png;" parent="1" vertex="1">
          <mxGeometry x="922" y="196" width="200" height="57.69" as="geometry" />
        </mxCell>
        <mxCell id="qJcnOCHqLsN_xk-ZRlv9-18" value="" style="shape=image;imageAspect=0;aspect=fixed;verticalLabelPosition=bottom;verticalAlign=top;labelBackgroundColor=none;fontSize=14;fontColor=#FFFFFF;image=https://docs.delta.io/latest/_static/delta-lake-logo.png;" parent="1" vertex="1">
          <mxGeometry x="895.25" y="296" width="166" height="33.84" as="geometry" />
        </mxCell>
        <mxCell id="qJcnOCHqLsN_xk-ZRlv9-22" value="&lt;h4&gt;&lt;b&gt;Bronze DB&lt;/b&gt;&lt;/h4&gt;" style="strokeWidth=3;html=1;shape=mxgraph.flowchart.database;whiteSpace=wrap;labelBackgroundColor=none;fontSize=14;fillColor=#ffe6cc;strokeColor=#d79b00;spacingTop=0;spacing=0;spacingBottom=-105;gradientColor=#FFB570;" parent="1" vertex="1">
          <mxGeometry x="647.5" y="396" width="78.5" height="80" as="geometry" />
        </mxCell>
        <mxCell id="qJcnOCHqLsN_xk-ZRlv9-23" value="&lt;h4&gt;&lt;b&gt;Silver DB&lt;/b&gt;&lt;/h4&gt;" style="strokeWidth=3;html=1;shape=mxgraph.flowchart.database;whiteSpace=wrap;labelBackgroundColor=none;fontSize=14;fillColor=#D4E1F5;strokeColor=#666666;spacingTop=0;spacing=0;spacingBottom=-105;gradientColor=#808080;" parent="1" vertex="1">
          <mxGeometry x="794" y="396" width="78.5" height="80" as="geometry" />
        </mxCell>
        <mxCell id="qJcnOCHqLsN_xk-ZRlv9-24" value="&lt;h4&gt;&lt;b&gt;Gold DB&lt;/b&gt;&lt;/h4&gt;" style="strokeWidth=3;html=1;shape=mxgraph.flowchart.database;whiteSpace=wrap;labelBackgroundColor=none;fontSize=14;fillColor=#FFEE96;strokeColor=#D4AE17;spacingTop=0;spacing=0;spacingBottom=-105;gradientColor=#E3C758;" parent="1" vertex="1">
          <mxGeometry x="932" y="396" width="78.5" height="80" as="geometry" />
        </mxCell>
        <mxCell id="qJcnOCHqLsN_xk-ZRlv9-28" value="" style="endArrow=classic;html=1;rounded=0;fontSize=14;fontColor=#FFFFFF;exitX=1;exitY=0.5;exitDx=0;exitDy=0;exitPerimeter=0;entryX=0;entryY=0.5;entryDx=0;entryDy=0;entryPerimeter=0;strokeColor=#0000CC;" parent="1" source="qJcnOCHqLsN_xk-ZRlv9-22" target="qJcnOCHqLsN_xk-ZRlv9-23" edge="1">
          <mxGeometry width="50" height="50" relative="1" as="geometry">
            <mxPoint x="782" y="296" as="sourcePoint" />
            <mxPoint x="832" y="246" as="targetPoint" />
          </mxGeometry>
        </mxCell>
        <mxCell id="qJcnOCHqLsN_xk-ZRlv9-29" value="" style="endArrow=classic;html=1;rounded=0;fontSize=14;fontColor=#FFFFFF;exitX=1;exitY=0.5;exitDx=0;exitDy=0;exitPerimeter=0;entryX=0;entryY=0.5;entryDx=0;entryDy=0;entryPerimeter=0;strokeColor=#0000CC;" parent="1" source="qJcnOCHqLsN_xk-ZRlv9-23" target="qJcnOCHqLsN_xk-ZRlv9-24" edge="1">
          <mxGeometry width="50" height="50" relative="1" as="geometry">
            <mxPoint x="736" y="446" as="sourcePoint" />
            <mxPoint x="853.5" y="446" as="targetPoint" />
          </mxGeometry>
        </mxCell>
        <mxCell id="qJcnOCHqLsN_xk-ZRlv9-30" value="Databricks" style="shape=image;verticalLabelPosition=bottom;labelBackgroundColor=none;verticalAlign=top;aspect=fixed;imageAspect=0;image=data:image/svg+xml,PHN2ZyB4bWxuczpkYz0iaHR0cDovL3B1cmwub3JnL2RjL2VsZW1lbnRzLzEuMS8iIHhtbG5zOmNjPSJodHRwOi8vY3JlYXRpdmVjb21tb25zLm9yZy9ucyMiIHhtbG5zOnJkZj0iaHR0cDovL3d3dy53My5vcmcvMTk5OS8wMi8yMi1yZGYtc3ludGF4LW5zIyIgeG1sbnM6c3ZnPSJodHRwOi8vd3d3LnczLm9yZy8yMDAwL3N2ZyIgeG1sbnM9Imh0dHA6Ly93d3cudzMub3JnLzIwMDAvc3ZnIiB4bWxuczp4bGluaz0iaHR0cDovL3d3dy53My5vcmcvMTk5OS94bGluayIgeG1sbnM6c29kaXBvZGk9Imh0dHA6Ly9zb2RpcG9kaS5zb3VyY2Vmb3JnZS5uZXQvRFREL3NvZGlwb2RpLTAuZHRkIiB4bWxuczppbmtzY2FwZT0iaHR0cDovL3d3dy5pbmtzY2FwZS5vcmcvbmFtZXNwYWNlcy9pbmtzY2FwZSIgdmVyc2lvbj0iMS4xIiBpZD0iTGF5ZXJfMSIgeD0iMHB4IiB5PSIwcHgiIHZpZXdCb3g9IjAgMCA0NC4yMTk5OTcgNDUuNzc5OTk5IiB4bWw6c3BhY2U9InByZXNlcnZlIiBzb2RpcG9kaTpkb2NuYW1lPSJhenVyZV9kYXRhYnJpY2tzLnN2ZyIgd2lkdGg9IjQ0LjIxOTk5NyIgaGVpZ2h0PSI0NS43Nzk5OTkiIGlua3NjYXBlOnZlcnNpb249IjAuOTIuMyAoMjQwNTU0NiwgMjAxOC0wMy0xMSkiPjxtZXRhZGF0YSBpZD0ibWV0YWRhdGEzMDcwMyI+PHJkZjpSREY+PGNjOldvcmsgcmRmOmFib3V0PSIiPjxkYzpmb3JtYXQ+aW1hZ2Uvc3ZnK3htbDwvZGM6Zm9ybWF0PjxkYzp0eXBlIHJkZjpyZXNvdXJjZT0iaHR0cDovL3B1cmwub3JnL2RjL2RjbWl0eXBlL1N0aWxsSW1hZ2UiLz48ZGM6dGl0bGUvPjwvY2M6V29yaz48L3JkZjpSREY+PC9tZXRhZGF0YT48ZGVmcyBpZD0iZGVmczMwNzAxIi8+PHNvZGlwb2RpOm5hbWVkdmlldyBwYWdlY29sb3I9IiNmZmZmZmYiIGJvcmRlcmNvbG9yPSIjNjY2NjY2IiBib3JkZXJvcGFjaXR5PSIxIiBvYmplY3R0b2xlcmFuY2U9IjEwIiBncmlkdG9sZXJhbmNlPSIxMCIgZ3VpZGV0b2xlcmFuY2U9IjEwIiBpbmtzY2FwZTpwYWdlb3BhY2l0eT0iMCIgaW5rc2NhcGU6cGFnZXNoYWRvdz0iMiIgaW5rc2NhcGU6d2luZG93LXdpZHRoPSIxOTIwIiBpbmtzY2FwZTp3aW5kb3ctaGVpZ2h0PSIxMDE3IiBpZD0ibmFtZWR2aWV3MzA2OTkiIHNob3dncmlkPSJmYWxzZSIgZml0LW1hcmdpbi10b3A9IjAiIGZpdC1tYXJnaW4tbGVmdD0iMCIgZml0LW1hcmdpbi1yaWdodD0iMCIgZml0LW1hcmdpbi1ib3R0b209IjAiIGlua3NjYXBlOnpvb209IjEuMDMwMzAzIiBpbmtzY2FwZTpjeD0iMjQwLjA4NSIgaW5rc2NhcGU6Y3k9Ii0xNzcuMzkiIGlua3NjYXBlOndpbmRvdy14PSItOCIgaW5rc2NhcGU6d2luZG93LXk9Ii04IiBpbmtzY2FwZTp3aW5kb3ctbWF4aW1pemVkPSIxIiBpbmtzY2FwZTpjdXJyZW50LWxheWVyPSJMYXllcl8xIi8+JiN4YTsmI3hhOzxnIGlkPSJnMzA2OTYiIHRyYW5zZm9ybT0idHJhbnNsYXRlKC01Ny4yOTAwMDEsLTE5Ny41OCkiPiYjeGE7CTxkZWZzIGlkPSJkZWZzMzA2NzUiPiYjeGE7CQk8cmVjdCBpZD0iU1ZHSURfM18iIHg9IjU3LjI5MDAwMSIgeT0iMTk3LjU4IiB3aWR0aD0iNDUuMzMwMDAyIiBoZWlnaHQ9IjQ4LjE2Ii8+JiN4YTsJPC9kZWZzPiYjeGE7CTxjbGlwUGF0aCBpZD0iU1ZHSURfNF8iPiYjeGE7CQk8dXNlIHhsaW5rOmhyZWY9IiNTVkdJRF8zXyIgc3R5bGU9Im92ZXJmbG93OnZpc2libGUiIGlkPSJ1c2UzMDY3NyIgeD0iMCIgeT0iMCIgd2lkdGg9IjEwMCUiIGhlaWdodD0iMTAwJSIvPiYjeGE7CTwvY2xpcFBhdGg+JiN4YTsJPGcgY2xpcC1wYXRoPSJ1cmwoI1NWR0lEXzRfKSIgaWQ9ImczMDY5NCI+JiN4YTsJCTxkZWZzIGlkPSJkZWZzMzA2ODEiPiYjeGE7CQkJPHJlY3QgaWQ9IlNWR0lEXzVfIiB4PSI1Ny4yOTAwMDEiIHk9IjE5Ny41OCIgd2lkdGg9IjQ1LjMzMDAwMiIgaGVpZ2h0PSI0OC4xNiIvPiYjeGE7CQk8L2RlZnM+JiN4YTsJCTxjbGlwUGF0aCBpZD0iU1ZHSURfNl8iPiYjeGE7CQkJPHVzZSB4bGluazpocmVmPSIjU1ZHSURfNV8iIHN0eWxlPSJvdmVyZmxvdzp2aXNpYmxlIiBpZD0idXNlMzA2ODMiIHg9IjAiIHk9IjAiIHdpZHRoPSIxMDAlIiBoZWlnaHQ9IjEwMCUiLz4mI3hhOwkJPC9jbGlwUGF0aD4mI3hhOwkJPHBvbHlnb24gc3R5bGU9ImZpbGw6I2RjMjEyNiIgcG9pbnRzPSI3OS40NiwyNDMuMzYgNTcuMjksMjMxLjMyIDU3LjI5LDIyNC4wMSA3OS40LDIxMi42MiAxMDEuNDUsMjI0LjAxIDEwMS40NSwyMzEuMzIgIiBjbGlwLXBhdGg9InVybCgjU1ZHSURfNl8pIiBpZD0icG9seWdvbjMwNjg2Ii8+JiN4YTsJCTxwb2x5Z29uIHN0eWxlPSJmaWxsOiNmMDU0MmQiIHBvaW50cz0iNzkuNCwyMzUuNTcgNTcuMjksMjI0LjAxIDc5LjQsMjEyLjYyIDEwMS41MSwyMjQuMDEgIiBjbGlwLXBhdGg9InVybCgjU1ZHSURfNl8pIiBpZD0icG9seWdvbjMwNjg4Ii8+JiN4YTsJCTxwb2x5Z29uIHN0eWxlPSJmaWxsOiNkYzIxMjYiIHBvaW50cz0iNzkuNDYsMjI4LjMyIDU3LjI5LDIxNi4yOCA1Ny4yOSwyMDguOTYgNzkuNCwxOTcuNTggMTAxLjQ1LDIwOC45NiAxMDEuNDUsMjE2LjI4ICIgY2xpcC1wYXRoPSJ1cmwoI1NWR0lEXzZfKSIgaWQ9InBvbHlnb24zMDY5MCIvPiYjeGE7CQk8cG9seWdvbiBzdHlsZT0iZmlsbDojZjA1NDJkIiBwb2ludHM9Ijc5LjQsMjIwLjUzIDU3LjI5LDIwOC45NiA3OS40LDE5Ny41OCAxMDEuNTEsMjA4Ljk2ICIgY2xpcC1wYXRoPSJ1cmwoI1NWR0lEXzZfKSIgaWQ9InBvbHlnb24zMDY5MiIvPiYjeGE7CTwvZz4mI3hhOzwvZz4mI3hhOzwvc3ZnPg==;fontSize=14;fontColor=#FFFFFF;strokeColor=#D4AE17;strokeWidth=3;fillColor=#FFEE96;gradientColor=#E3C758;fontStyle=1" parent="1" vertex="1">
          <mxGeometry x="726.75" y="534" width="44" height="46" as="geometry" />
        </mxCell>
        <mxCell id="qJcnOCHqLsN_xk-ZRlv9-31" style="edgeStyle=orthogonalEdgeStyle;html=1;startArrow=none;startFill=0;startSize=10;endArrow=none;endFill=0;endSize=10;strokeWidth=3;fontSize=11;fontColor=#FFFFFF;strokeColor=#000000;dashed=1;rounded=0;exitX=0.553;exitY=0;exitDx=0;exitDy=0;exitPerimeter=0;entryX=0;entryY=0.5;entryDx=0;entryDy=0;entryPerimeter=0;" parent="1" source="23046e2b9bb16c14-62" target="qJcnOCHqLsN_xk-ZRlv9-22" edge="1">
          <mxGeometry relative="1" as="geometry">
            <Array as="points">
              <mxPoint x="576" y="436" />
            </Array>
            <mxPoint x="684" y="640" as="sourcePoint" />
            <mxPoint x="818.0129999999999" y="700.9960000000001" as="targetPoint" />
          </mxGeometry>
        </mxCell>
        <mxCell id="qJcnOCHqLsN_xk-ZRlv9-32" value="Databricks" style="shape=image;verticalLabelPosition=bottom;labelBackgroundColor=none;verticalAlign=top;aspect=fixed;imageAspect=0;image=data:image/svg+xml,PHN2ZyB4bWxuczpkYz0iaHR0cDovL3B1cmwub3JnL2RjL2VsZW1lbnRzLzEuMS8iIHhtbG5zOmNjPSJodHRwOi8vY3JlYXRpdmVjb21tb25zLm9yZy9ucyMiIHhtbG5zOnJkZj0iaHR0cDovL3d3dy53My5vcmcvMTk5OS8wMi8yMi1yZGYtc3ludGF4LW5zIyIgeG1sbnM6c3ZnPSJodHRwOi8vd3d3LnczLm9yZy8yMDAwL3N2ZyIgeG1sbnM9Imh0dHA6Ly93d3cudzMub3JnLzIwMDAvc3ZnIiB4bWxuczp4bGluaz0iaHR0cDovL3d3dy53My5vcmcvMTk5OS94bGluayIgeG1sbnM6c29kaXBvZGk9Imh0dHA6Ly9zb2RpcG9kaS5zb3VyY2Vmb3JnZS5uZXQvRFREL3NvZGlwb2RpLTAuZHRkIiB4bWxuczppbmtzY2FwZT0iaHR0cDovL3d3dy5pbmtzY2FwZS5vcmcvbmFtZXNwYWNlcy9pbmtzY2FwZSIgdmVyc2lvbj0iMS4xIiBpZD0iTGF5ZXJfMSIgeD0iMHB4IiB5PSIwcHgiIHZpZXdCb3g9IjAgMCA0NC4yMTk5OTcgNDUuNzc5OTk5IiB4bWw6c3BhY2U9InByZXNlcnZlIiBzb2RpcG9kaTpkb2NuYW1lPSJhenVyZV9kYXRhYnJpY2tzLnN2ZyIgd2lkdGg9IjQ0LjIxOTk5NyIgaGVpZ2h0PSI0NS43Nzk5OTkiIGlua3NjYXBlOnZlcnNpb249IjAuOTIuMyAoMjQwNTU0NiwgMjAxOC0wMy0xMSkiPjxtZXRhZGF0YSBpZD0ibWV0YWRhdGEzMDcwMyI+PHJkZjpSREY+PGNjOldvcmsgcmRmOmFib3V0PSIiPjxkYzpmb3JtYXQ+aW1hZ2Uvc3ZnK3htbDwvZGM6Zm9ybWF0PjxkYzp0eXBlIHJkZjpyZXNvdXJjZT0iaHR0cDovL3B1cmwub3JnL2RjL2RjbWl0eXBlL1N0aWxsSW1hZ2UiLz48ZGM6dGl0bGUvPjwvY2M6V29yaz48L3JkZjpSREY+PC9tZXRhZGF0YT48ZGVmcyBpZD0iZGVmczMwNzAxIi8+PHNvZGlwb2RpOm5hbWVkdmlldyBwYWdlY29sb3I9IiNmZmZmZmYiIGJvcmRlcmNvbG9yPSIjNjY2NjY2IiBib3JkZXJvcGFjaXR5PSIxIiBvYmplY3R0b2xlcmFuY2U9IjEwIiBncmlkdG9sZXJhbmNlPSIxMCIgZ3VpZGV0b2xlcmFuY2U9IjEwIiBpbmtzY2FwZTpwYWdlb3BhY2l0eT0iMCIgaW5rc2NhcGU6cGFnZXNoYWRvdz0iMiIgaW5rc2NhcGU6d2luZG93LXdpZHRoPSIxOTIwIiBpbmtzY2FwZTp3aW5kb3ctaGVpZ2h0PSIxMDE3IiBpZD0ibmFtZWR2aWV3MzA2OTkiIHNob3dncmlkPSJmYWxzZSIgZml0LW1hcmdpbi10b3A9IjAiIGZpdC1tYXJnaW4tbGVmdD0iMCIgZml0LW1hcmdpbi1yaWdodD0iMCIgZml0LW1hcmdpbi1ib3R0b209IjAiIGlua3NjYXBlOnpvb209IjEuMDMwMzAzIiBpbmtzY2FwZTpjeD0iMjQwLjA4NSIgaW5rc2NhcGU6Y3k9Ii0xNzcuMzkiIGlua3NjYXBlOndpbmRvdy14PSItOCIgaW5rc2NhcGU6d2luZG93LXk9Ii04IiBpbmtzY2FwZTp3aW5kb3ctbWF4aW1pemVkPSIxIiBpbmtzY2FwZTpjdXJyZW50LWxheWVyPSJMYXllcl8xIi8+JiN4YTsmI3hhOzxnIGlkPSJnMzA2OTYiIHRyYW5zZm9ybT0idHJhbnNsYXRlKC01Ny4yOTAwMDEsLTE5Ny41OCkiPiYjeGE7CTxkZWZzIGlkPSJkZWZzMzA2NzUiPiYjeGE7CQk8cmVjdCBpZD0iU1ZHSURfM18iIHg9IjU3LjI5MDAwMSIgeT0iMTk3LjU4IiB3aWR0aD0iNDUuMzMwMDAyIiBoZWlnaHQ9IjQ4LjE2Ii8+JiN4YTsJPC9kZWZzPiYjeGE7CTxjbGlwUGF0aCBpZD0iU1ZHSURfNF8iPiYjeGE7CQk8dXNlIHhsaW5rOmhyZWY9IiNTVkdJRF8zXyIgc3R5bGU9Im92ZXJmbG93OnZpc2libGUiIGlkPSJ1c2UzMDY3NyIgeD0iMCIgeT0iMCIgd2lkdGg9IjEwMCUiIGhlaWdodD0iMTAwJSIvPiYjeGE7CTwvY2xpcFBhdGg+JiN4YTsJPGcgY2xpcC1wYXRoPSJ1cmwoI1NWR0lEXzRfKSIgaWQ9ImczMDY5NCI+JiN4YTsJCTxkZWZzIGlkPSJkZWZzMzA2ODEiPiYjeGE7CQkJPHJlY3QgaWQ9IlNWR0lEXzVfIiB4PSI1Ny4yOTAwMDEiIHk9IjE5Ny41OCIgd2lkdGg9IjQ1LjMzMDAwMiIgaGVpZ2h0PSI0OC4xNiIvPiYjeGE7CQk8L2RlZnM+JiN4YTsJCTxjbGlwUGF0aCBpZD0iU1ZHSURfNl8iPiYjeGE7CQkJPHVzZSB4bGluazpocmVmPSIjU1ZHSURfNV8iIHN0eWxlPSJvdmVyZmxvdzp2aXNpYmxlIiBpZD0idXNlMzA2ODMiIHg9IjAiIHk9IjAiIHdpZHRoPSIxMDAlIiBoZWlnaHQ9IjEwMCUiLz4mI3hhOwkJPC9jbGlwUGF0aD4mI3hhOwkJPHBvbHlnb24gc3R5bGU9ImZpbGw6I2RjMjEyNiIgcG9pbnRzPSI3OS40NiwyNDMuMzYgNTcuMjksMjMxLjMyIDU3LjI5LDIyNC4wMSA3OS40LDIxMi42MiAxMDEuNDUsMjI0LjAxIDEwMS40NSwyMzEuMzIgIiBjbGlwLXBhdGg9InVybCgjU1ZHSURfNl8pIiBpZD0icG9seWdvbjMwNjg2Ii8+JiN4YTsJCTxwb2x5Z29uIHN0eWxlPSJmaWxsOiNmMDU0MmQiIHBvaW50cz0iNzkuNCwyMzUuNTcgNTcuMjksMjI0LjAxIDc5LjQsMjEyLjYyIDEwMS41MSwyMjQuMDEgIiBjbGlwLXBhdGg9InVybCgjU1ZHSURfNl8pIiBpZD0icG9seWdvbjMwNjg4Ii8+JiN4YTsJCTxwb2x5Z29uIHN0eWxlPSJmaWxsOiNkYzIxMjYiIHBvaW50cz0iNzkuNDYsMjI4LjMyIDU3LjI5LDIxNi4yOCA1Ny4yOSwyMDguOTYgNzkuNCwxOTcuNTggMTAxLjQ1LDIwOC45NiAxMDEuNDUsMjE2LjI4ICIgY2xpcC1wYXRoPSJ1cmwoI1NWR0lEXzZfKSIgaWQ9InBvbHlnb24zMDY5MCIvPiYjeGE7CQk8cG9seWdvbiBzdHlsZT0iZmlsbDojZjA1NDJkIiBwb2ludHM9Ijc5LjQsMjIwLjUzIDU3LjI5LDIwOC45NiA3OS40LDE5Ny41OCAxMDEuNTEsMjA4Ljk2ICIgY2xpcC1wYXRoPSJ1cmwoI1NWR0lEXzZfKSIgaWQ9InBvbHlnb24zMDY5MiIvPiYjeGE7CTwvZz4mI3hhOzwvZz4mI3hhOzwvc3ZnPg==;fontSize=14;fontColor=#FFFFFF;strokeColor=#D4AE17;strokeWidth=3;fillColor=#FFEE96;gradientColor=#E3C758;fontStyle=1" parent="1" vertex="1">
          <mxGeometry x="952" y="524" width="44" height="46" as="geometry" />
        </mxCell>
        <mxCell id="qJcnOCHqLsN_xk-ZRlv9-35" value="&lt;font color=&quot;#ffffff&quot; size=&quot;1&quot;&gt;&lt;b style=&quot;font-size: 14px&quot;&gt;Raw Data&lt;/b&gt;&lt;/font&gt;" style="text;html=1;resizable=0;autosize=1;align=center;verticalAlign=middle;points=[];fillColor=none;strokeColor=none;rounded=0;labelBackgroundColor=none;fontSize=13;fontColor=#000000;" parent="1" vertex="1">
          <mxGeometry x="646.75" y="368" width="80" height="20" as="geometry" />
        </mxCell>
        <mxCell id="qJcnOCHqLsN_xk-ZRlv9-36" value="&lt;font color=&quot;#ffffff&quot; size=&quot;1&quot;&gt;&lt;b style=&quot;font-size: 14px ; line-height: 1.3&quot;&gt;Filtered - cleaned&lt;br&gt;&amp;nbsp;- transformed&lt;/b&gt;&lt;/font&gt;" style="text;html=1;resizable=0;autosize=1;align=center;verticalAlign=middle;points=[];fillColor=none;strokeColor=none;rounded=0;labelBackgroundColor=none;fontSize=13;fontColor=#000000;" parent="1" vertex="1">
          <mxGeometry x="770" y="351" width="130" height="40" as="geometry" />
        </mxCell>
        <mxCell id="qJcnOCHqLsN_xk-ZRlv9-37" value="" style="rounded=1;whiteSpace=wrap;html=1;shadow=0;strokeWidth=2;fillColor=#008AE3;fontSize=12;fontColor=#FFFFFF;align=center;strokeColor=none;arcSize=3;verticalAlign=top;" parent="1" vertex="1">
          <mxGeometry x="1254" y="188" width="150" height="431" as="geometry" />
        </mxCell>
        <mxCell id="qJcnOCHqLsN_xk-ZRlv9-43" value="&lt;font color=&quot;#ffffff&quot; style=&quot;font-size: 14px&quot;&gt;&lt;b&gt;&lt;span&gt;Business Level &lt;br&gt;&lt;/span&gt;Information&lt;/b&gt;&lt;/font&gt;" style="text;html=1;resizable=0;autosize=1;align=center;verticalAlign=middle;points=[];fillColor=none;strokeColor=none;rounded=0;labelBackgroundColor=none;fontSize=13;fontColor=#000000;" parent="1" vertex="1">
          <mxGeometry x="926" y="351" width="120" height="40" as="geometry" />
        </mxCell>
        <mxCell id="qJcnOCHqLsN_xk-ZRlv9-44" value="&lt;font color=&quot;#ffffff&quot;&gt;&lt;span style=&quot;font-size: 14px&quot;&gt;&lt;b&gt;transform and &lt;br&gt;move data&lt;/b&gt;&lt;/span&gt;&lt;/font&gt;" style="text;html=1;resizable=0;autosize=1;align=center;verticalAlign=middle;points=[];fillColor=none;strokeColor=none;rounded=0;labelBackgroundColor=none;fontSize=13;fontColor=#000000;" parent="1" vertex="1">
          <mxGeometry x="709" y="491" width="110" height="40" as="geometry" />
        </mxCell>
        <mxCell id="qJcnOCHqLsN_xk-ZRlv9-45" value="&lt;font color=&quot;#ffffff&quot;&gt;&lt;span style=&quot;font-size: 14px&quot;&gt;&lt;b&gt;transform and &lt;br&gt;move data&lt;/b&gt;&lt;/span&gt;&lt;/font&gt;" style="text;html=1;resizable=0;autosize=1;align=center;verticalAlign=middle;points=[];fillColor=none;strokeColor=none;rounded=0;labelBackgroundColor=none;fontSize=13;fontColor=#000000;" parent="1" vertex="1">
          <mxGeometry x="846" y="498" width="110" height="40" as="geometry" />
        </mxCell>
        <mxCell id="qJcnOCHqLsN_xk-ZRlv9-46" value="" style="shape=image;imageAspect=0;aspect=fixed;verticalLabelPosition=bottom;verticalAlign=top;labelBackgroundColor=none;fontSize=14;fontColor=#FFFFFF;strokeColor=#D4AE17;strokeWidth=3;fillColor=#008AE3;gradientColor=#ffffff;image=data:image/png,iVBORw0KGgoAAAANSUhEUgAAASwAAACoCAMAAABt9SM9AAAAdVBMVEUBvPP///8AufKS3fgAu/MAvPH//v/i9/72/f8xyPTw+v6/7ftg0PYAuvGQ3vgAt/Lp+v6n4/pQy/R51vee4fiy6fvP8fzY9P36//9ez/bC7fsmwvTV8/3L8Pxx1PeW4Pit5/tUzvV21/aF3PkUwfKl5vnX8v0OM6FwAAAN20lEQVR4nO2djXqiOhCGY8wUUBCKKChKbWX3/i/xZBJ+FRU0Cbin37P7nNb1aHxNJpNkZkJmk9bH2A1oiYzdgHfSL6wBmjKshbU9Hjebzf64jQN77NbMJgorsZbznZMzRqlHhRghabj+3JbIxrFlk4NlH+chUJ/jYcCAEJDivzLmU5pnJ0s8bwxc04IVnHbA+xEQTklK/MDET/JHjzJntU1Gad5EYH3wjmIvXaCMPBYfnc7cGqGVE4E1m1nnlNIepApR2G2Md6+JwIpdQkk9+HrhYukfw62cBCzL9RmaJDaAFj7dz09Ge9fYsLitCn6GjL+WmO8sDTZ2bFiz2WdOh/Soi/7F6M6cqR8bVhzSwil4khYwFplq7MiwIujjKzzgRcNAvJh2P3VUWPa3/zorpAVmLNeYsOKUvjICG7SYfzbR4BFhLXmPUIEK3Qigrq1/HI4HK1IxAmuVhkunRoMV+Qpse1Ms1U5rLFhfqoagSVojwZo3t2HehtY4sDbq+xWKOnqt/Ciw9mqtVS3f1druMWAFmlBx0ZXOho8By6GKJ8JKjNCNxoYbhoUG5azHYBW4QKORN9+z9jpZ8YH4ra/pxmHZ6cDt44EC/6St7cZhnZ/dFe2Pa6Gr7aZhWbpR8YGY6Wq8aViu9o7FddDUeMOw/uq17lJUl2tqGNb382cTA8Ti6g2D7Wl+zrjO0SZ+NRLHLKzYxCDkXWst3i05nh0QMTiMMvxPGkbxgxbelVlYP75Wt6EUI9wzjdcYDwBQHR7hQRCl6dfzXqtRWIvcACnEQr8OIQZ1Vd9MY3lF6Q/iemZzQh2s5rsn9iLgsi8O1zdmRiF2Iu+OcaTs/JwrprpnJdbyax2maYoRaGkaZvOGXXV1bc1csro/2D1C06fOzpTCsvc/wqKKMD2GZDDQEZxsI+zEwoS9kmL311TAPdcnQkoUwcIxeMyAdgajcbvq7fhXuTThZPUVfWIPWgEsYazsz9y/Y5EY8fOvzDPH4qGAwXYEWIjqK318EN8rBNKkBtNSAmuTTg5EPw1cRCqAhVFD7ykG1iCH63VYERhZ7+kQMGfQnPgqLNv1gXhvSotBsYo0A8tKjQxBbV8G0CHe6WuwjrrOtNqfSP5lnu+jp6aUHMsH7Nu8BGupstm3JZKdIA/X0d46qO5ldEAY3Cuwlp7WgxrcUMHVUv7NKcXF0lf5Hj7Q/p78C7COSs1VSR1E9oDYqkvd8+lotYeJpXzqHWDjn4dlKY5FQ0oiw5CkoXvebIPOWV05LP56vfdrnoa1yAdljzxoMXYlAmmYrU5xWE9Q1w6j+p4FtHcc/dOwVJxpYVdilE9x6W4dLQ9Fau/u3myuHhZhjlZY/AuPVBgsxnCKW16curiGYRHoe4rxZM+KpSF+Ta1Zux5xxmH1HodPwgpVbE3ReZtSIfOw+h7KPgdLzcnDjTA947B6e/FPwUrUHGlNBRYhPbPwnoK18pU0cSqwwD/2+9zPwLLVpCdNBhahPePfnoEVKTqlmQ6sntPhE7CSVFGDpwIL/Lk2WMehRQVuaSqwem/TPAEre3Dc27+N/z6sIFXWxonB+nh00jMc1lLZNtZUYDGg+fxvj3Oe4bDW/xwsEShCnejhlulgWImjrInTgSVaQ2H9ANdgWJYij5RMDZYoebC+u2s6GJbC1JvJweK4yNcd2zUYlpJdP6mnYOk8T8JDSZrfXigOhpUphDVP7GvNdsuuhwvF6qzADTF6vrVjMxhWqO5Qh+VOl6D74UL6o1CAOnG3xzUYljKXFH1Be3Ete7fperjQgWgPGMDSld35sENhKdr3E7phs+6f7hjJOrixtB4Ky1bY1qnNhg2Bj9HMl2NxMCyF4Q0ThsXNvHvtQwwehi/VUWtrurCED3Gd43kXVtUN7Xj/uTqvz+ufs0KbMV1YQlhRoz0QH/esYJPJRDQphTVkJg4L/J+LN38AK4gcKgtjFjM2eOoCSCcO6zpk5B6sZOkyWnakKn5KXWMmD4uw9tKnC5YcqMkfR3MqwNRhFUWmart1s2ct0xdqrfbT9GER1gqDuAHLCql+V/kdYPnNYtfdsCJmImT7DWBBq/5IF6zFzlCS/PRh8Ubu7sLapoZSvN4CFqH7O7CWRrImRDPeAhapQ06vYJ2UlDvuJTovpuWP1rpiYrAa6T2XsE5qQq966T16FrDwBixNNTFvtSP/Xn9tDsHI0coPGgmV1WrC+tBXE/NGO2TeCcjyD2Xiiek4+Idi5YTYgPUxs0ZKsmRyPwOZnY7Bbt9o0hRgEWZdwvqYJc6IaeHiiivMlmMME5z2Vvdh5yiwSuNKalYKQz6GSyLwxL1gRHQ0kofrz/1FUthIPSu/GoZ7gxNhH5WD8/tc5/Xg6c4YXevQgvUxs/OJ1maQk0AeZqvNMYjHaCTIXJBGz9JfE/NJgbi4r5w4NZRGf6wicayCpTCUSIOYKPMEY5WQAGbXsLh1/5lqx5qCgB6bPSt+27IfJlQYrRLWb8e6r7ABy2DRtPdUntSw/piqkqK64ocRQVFmvoBlaKHDPOqNMve/KkbiClZg5IACmLPO1ukbsiqmQwnrZGIUMkKxbpzCCF6DEndjSFg7M6ULRWmv4B17FqGfFSwz3jv9Em9mpCS8aom2C1ixb6w8NO5uvDcsMzWPPYwb+MJM2DcciDUsM7t+uO8fY0mh1Rt2rRpWaML1EaUmzj6fVSylsIx4PTLnXMByTMAS6aKphycljRAd5rckijNT2ryFG6hfxIlhQSR8If57GTlGKQB4vv5dgMp1sA0YEQY0FqWosY7qpt7ADqMLuYy5UbSqW8TOUbTG40y244/zZv9sg2AjiiZS549lz5Jgqb92OrchHwLWwkB0A4iQgYyK/pyUOS3edSr32sOSFA1njFrFBIpmY+GBOCizGGYH1rUrDqlmT5Edip4VGIAlEWAXdmbV3WpwnffOOx36f40TTNkjsR+t+CsUt8whzBSXa4lliQOgQHfoj1XAsgysbcXGrHBR8KTkwApYxFlXyiwBASSsqkUlLFFByvrm66VdmEUgS4RtQv5DitF5B51TLLDUrmDpt1kiX2GH3z794f0hlBYapDXHowjPx2dggt5dWHs+O3geo3L9caYe/yBEXLmt1f8Bp9z8C0zA2lYEIMH9M/mWjTfG5qzwvuSbsMS5cIaXnnjSBEa48sDAfCxTpDd7OithLQwMQ/xsc/ndY7xT9f3UTCws3IK/3utZsy0TJ2PiSdzWCrMOIGqr6ay0Lk2lIdcBZ7KyyIFwtS6yh4WhWshJ8i6s8nQT69Y2qi3hrq++cci/DauENTOQS2uhVS/e2ltclM8tukYmP/xdWEVTWcrdnhCdWCk/0LpRVgQ7CFg77ekByGLNPW8hH21zO1gAJ5tTkUR1D5YNsoqleMHlplbx/2uSl9WwdJ/cgxjyP26pM+8WzX7AhPkvP+s9WIvywdV17JbGqEV/WcPSHBxZeCltBYyVTrc4wkyqrnYPVlCuCTtymPVtNDGwa1iW5gjlzvpU39UCRUS41qe8fWElbtiSwroAFyozeIxsK+PntY/H7Zb/2R658OCiKi0lzuRwiV0+uw+sDGdX2pTGrZoyuFvC0rwtLv3N5ic71nn84O/by9PChSp+AxZ0wQpFqw0ll6dJE5befWWKa7dWPQhc8hTTirygpOlQ4qBN0rKjcCehAxaBWesYHYi+4hh1QquEtdBps0R1+mM7WzhdlHeOiqtvVq2ai9+zhtMqTPk1LFzgLFrOtK5eBqxKDCuO77+pvm9GmMd1a8hIX0J0J9w82LZTZtED3OK/4ao6D7iTcA1LvGgjHYSmCsqId6qx50aqaVfPW+HCeI8rqrb9FXH43IsE3OZaQO2J4y2q4uB67ktW21nS1bNk8MEfIrskZVmg6QpT/h0EF7AW2m6kB4JGZ0/b3zujYvNKrua3jV3lz7Bwz2fLEPJ8tZidtl2wCJXH2ysHcggj/mq5pnHYyDAqg9nOmmYWzuNrdr1u9kRG2I93XVwcx6vXqHUcd7oO3N9gYSutINFls/L6bUpY2iIQAM+h7auNa7E0PfjXpZcEVhaVLdznftzYgw8aL0HTOm8l2aur29hW836sKlpZV9diqetm39euCd3xRSILM7etTJgeoOl8a1nWCeeAnZuFGK3MnMzdtV8jFM+KN2tNV5Z57VsIKli6uhYAo17HTAt4aThQr9iJkEI3XO6mUsziKc4Pq7mSP3LxGui4y2to9LSeQLOwQ500MNfz5QC5e3Z0/SGrR9AXANK+WeTy6VBeg6zJb6AtO9HI3TGVR/4+urz+sAHr8KYXq2oTeOHsFqzZ1xtGt+gTd3our5pu5Ui/7U20egSXl6a0YAUpYZPOdzImAeHq4uR29v3hF5UUYri+kvuiVMHx18YLMQYdF3JfFsFYCgfyf4+Mpl2XPF2VV1mS0ov+/wpo2FlG/7pwz/Ytc5GUyr9xW0pHSShDF2lPVhRulSzpKjaW/Ki6huitVAYjujdvsuguY7cBowV8JiL0m2h6pxJOJ6yP2SIzE14+LTGar+xZVwmcez2LP3v7/1r7MHE5yvn+XTK36pRyXMeQsqIAxb8uIOD5afTottGbRV2xKx4yoJ6u87iJSGxOUgru/haJHj1Ljttg46ZMZ8zF2MJNaZJmm15Xuj8ucb7YzrMU6L8plobrTdzzst+eNw3Ywd/9KZr/S1rNo9Pyb9CX0wBYvxLqC+vBNYlvrAGf7LdnDdAvrAH6hTVAv7AG6D94INYgq1JzkQAAAABJRU5ErkJggg==;" parent="1" vertex="1">
          <mxGeometry x="1265.5" y="195" width="123.5" height="69.16" as="geometry" />
        </mxCell>
        <mxCell id="qJcnOCHqLsN_xk-ZRlv9-49" value="" style="aspect=fixed;perimeter=ellipsePerimeter;html=1;align=center;shadow=0;dashed=0;spacingTop=3;image;image=img/lib/active_directory/internet_globe.svg;labelBackgroundColor=none;fontSize=14;fontColor=#FFFFFF;strokeColor=#D4AE17;strokeWidth=3;fillColor=#008AE3;gradientColor=#ffffff;" parent="1" vertex="1">
          <mxGeometry x="1339" y="271.69" width="50" height="50" as="geometry" />
        </mxCell>
        <mxCell id="qJcnOCHqLsN_xk-ZRlv9-51" value="" style="aspect=fixed;perimeter=ellipsePerimeter;html=1;align=center;shadow=0;dashed=0;spacingTop=3;image;image=img/lib/active_directory/database_cube.svg;labelBackgroundColor=none;fontSize=14;fontColor=#FFFFFF;strokeColor=#D4AE17;strokeWidth=3;fillColor=#008AE3;gradientColor=#ffffff;" parent="1" vertex="1">
          <mxGeometry x="1281.35" y="359" width="91.8" height="102" as="geometry" />
        </mxCell>
        <mxCell id="qJcnOCHqLsN_xk-ZRlv9-56" value="&lt;font color=&quot;#ffffff&quot;&gt;&lt;span style=&quot;font-size: 14px&quot;&gt;&lt;b&gt;Azure Analysis &lt;br&gt;Services&lt;/b&gt;&lt;/span&gt;&lt;/font&gt;" style="text;html=1;resizable=0;autosize=1;align=center;verticalAlign=middle;points=[];fillColor=none;strokeColor=none;rounded=0;labelBackgroundColor=none;fontSize=13;fontColor=#000000;" parent="1" vertex="1">
          <mxGeometry x="1269" y="555" width="120" height="40" as="geometry" />
        </mxCell>
        <mxCell id="qJcnOCHqLsN_xk-ZRlv9-60" value="" style="shape=image;imageAspect=0;aspect=fixed;verticalLabelPosition=bottom;verticalAlign=top;labelBackgroundColor=none;fontSize=14;fontColor=#FFFFFF;strokeColor=#D4AE17;strokeWidth=3;fillColor=#008AE3;gradientColor=#ffffff;image=https://www.vectorlogo.zone/logos/grafana/grafana-ar21.png;" parent="1" vertex="1">
          <mxGeometry x="1423" y="226.69" width="200" height="100" as="geometry" />
        </mxCell>
        <mxCell id="qJcnOCHqLsN_xk-ZRlv9-62" value="" style="shape=image;imageAspect=0;aspect=fixed;verticalLabelPosition=bottom;verticalAlign=top;labelBackgroundColor=none;fontSize=14;fontColor=#FFFFFF;strokeColor=#D4AE17;strokeWidth=3;fillColor=#008AE3;gradientColor=#ffffff;image=https://zappysys.com/blog/wp-content/uploads/2018/06/power-bi-logo-310x310.png;" parent="1" vertex="1">
          <mxGeometry x="1458" y="333.84" width="130.16" height="130.16" as="geometry" />
        </mxCell>
        <mxCell id="qJcnOCHqLsN_xk-ZRlv9-63" value="" style="shape=image;imageAspect=0;aspect=fixed;verticalLabelPosition=bottom;verticalAlign=top;labelBackgroundColor=none;fontSize=14;fontColor=#FFFFFF;strokeColor=#D4AE17;strokeWidth=3;fillColor=#008AE3;gradientColor=#ffffff;image=https://patxiredes.files.wordpress.com/2014/10/excel.png;" parent="1" vertex="1">
          <mxGeometry x="1418.08" y="488.44" width="210" height="117.12" as="geometry" />
        </mxCell>
        <mxCell id="FRBdrXSq1Gi5sJ8J9Zad-1" value="&lt;h3&gt;&lt;b&gt;EIP??&lt;/b&gt;&lt;/h3&gt;" style="text;html=1;resizable=0;autosize=1;align=center;verticalAlign=middle;points=[];fillColor=none;strokeColor=none;rounded=0;" parent="1" vertex="1">
          <mxGeometry x="548.5" y="376" width="50" height="46" as="geometry" />
        </mxCell>
        <mxCell id="FRBdrXSq1Gi5sJ8J9Zad-2" value="&lt;h4&gt;DC MARCOUSSIS&lt;/h4&gt;" style="shape=datastore;whiteSpace=wrap;html=1;fillColor=#ffcccc;strokeColor=#36393d;strokeWidth=2;labelPosition=center;verticalLabelPosition=bottom;align=center;verticalAlign=top;spacing=-13;" parent="1" vertex="1">
          <mxGeometry x="363.5" y="424" width="73" height="81" as="geometry" />
        </mxCell>
        <mxCell id="FRBdrXSq1Gi5sJ8J9Zad-10" value="" style="rounded=1;whiteSpace=wrap;html=1;strokeWidth=2;fillColor=#D6FBFF;strokeColor=#6c8ebf;" parent="1" vertex="1">
          <mxGeometry x="272" y="240" width="256" height="125" as="geometry" />
        </mxCell>
        <mxCell id="FRBdrXSq1Gi5sJ8J9Zad-3" value="" style="verticalLabelPosition=bottom;html=1;verticalAlign=top;align=center;strokeColor=none;fillColor=#00BEF2;shape=mxgraph.azure.computer;pointerEvents=1;" parent="1" vertex="1">
          <mxGeometry x="284" y="250.19" width="50" height="45" as="geometry" />
        </mxCell>
        <mxCell id="FRBdrXSq1Gi5sJ8J9Zad-4" value="" style="verticalLabelPosition=bottom;html=1;verticalAlign=top;align=center;strokeColor=none;fillColor=#00BEF2;shape=mxgraph.azure.computer;pointerEvents=1;" parent="1" vertex="1">
          <mxGeometry x="375" y="251" width="50" height="45" as="geometry" />
        </mxCell>
        <mxCell id="FRBdrXSq1Gi5sJ8J9Zad-5" value="" style="verticalLabelPosition=bottom;html=1;verticalAlign=top;align=center;strokeColor=none;fillColor=#00BEF2;shape=mxgraph.azure.computer;pointerEvents=1;" parent="1" vertex="1">
          <mxGeometry x="468" y="251" width="50" height="45" as="geometry" />
        </mxCell>
        <mxCell id="FRBdrXSq1Gi5sJ8J9Zad-7" value="" style="endArrow=open;html=1;rounded=0;exitX=0.5;exitY=1;exitDx=0;exitDy=0;exitPerimeter=0;endFill=0;edgeStyle=orthogonalEdgeStyle;entryX=0.5;entryY=0;entryDx=0;entryDy=0;" parent="1" source="FRBdrXSq1Gi5sJ8J9Zad-3" target="FRBdrXSq1Gi5sJ8J9Zad-2" edge="1">
          <mxGeometry width="50" height="50" relative="1" as="geometry">
            <mxPoint x="334" y="372.69" as="sourcePoint" />
            <mxPoint x="384" y="320" as="targetPoint" />
            <Array as="points">
              <mxPoint x="309" y="342" />
              <mxPoint x="400" y="342" />
            </Array>
          </mxGeometry>
        </mxCell>
        <mxCell id="FRBdrXSq1Gi5sJ8J9Zad-8" value="" style="endArrow=open;html=1;rounded=0;exitX=0.5;exitY=1;exitDx=0;exitDy=0;exitPerimeter=0;endFill=0;edgeStyle=orthogonalEdgeStyle;" parent="1" source="FRBdrXSq1Gi5sJ8J9Zad-4" edge="1">
          <mxGeometry width="50" height="50" relative="1" as="geometry">
            <mxPoint x="319" y="305.19000000000005" as="sourcePoint" />
            <mxPoint x="400" y="424" as="targetPoint" />
          </mxGeometry>
        </mxCell>
        <mxCell id="FRBdrXSq1Gi5sJ8J9Zad-9" value="" style="endArrow=open;html=1;rounded=0;exitX=0.5;exitY=1;exitDx=0;exitDy=0;exitPerimeter=0;endFill=0;edgeStyle=orthogonalEdgeStyle;" parent="1" source="FRBdrXSq1Gi5sJ8J9Zad-5" edge="1">
          <mxGeometry width="50" height="50" relative="1" as="geometry">
            <mxPoint x="319" y="305.19000000000005" as="sourcePoint" />
            <mxPoint x="400" y="426" as="targetPoint" />
            <Array as="points">
              <mxPoint x="493" y="342" />
              <mxPoint x="400" y="342" />
            </Array>
          </mxGeometry>
        </mxCell>
        <mxCell id="FRBdrXSq1Gi5sJ8J9Zad-11" value="&lt;h3&gt;Production Site&lt;/h3&gt;" style="text;html=1;resizable=0;autosize=1;align=center;verticalAlign=middle;points=[];fillColor=none;strokeColor=none;rounded=0;" parent="1" vertex="1">
          <mxGeometry x="399" y="330" width="114" height="46" as="geometry" />
        </mxCell>
        <mxCell id="JtUT9d7o_ifUqy7GnOw--4" style="edgeStyle=orthogonalEdgeStyle;rounded=0;orthogonalLoop=1;jettySize=auto;html=1;exitX=0.5;exitY=1;exitDx=0;exitDy=0;entryX=0.25;entryY=1;entryDx=0;entryDy=0;" edge="1" parent="1" source="qJcnOCHqLsN_xk-ZRlv9-32" target="qJcnOCHqLsN_xk-ZRlv9-32">
          <mxGeometry relative="1" as="geometry" />
        </mxCell>
        <mxCell id="JtUT9d7o_ifUqy7GnOw--6" value="" style="shape=image;imageAspect=0;aspect=fixed;verticalLabelPosition=bottom;verticalAlign=top;image=data:image/png,iVBORw0KGgoAAAANSUhEUgAAAOEAAADhCAMAAAAJbSJIAAAA81BMVEX///8mh84AcsW41DJ/ugD4/f4Ab8RfoNdUkdAehc0ZgMoAcsQnic+71u7//v/t9fsAfssAbMPe7fgAZ8EAasIzkNJEi84AY8Brpdm30yrX6vfz+f1Vm9az1O72+uyGvQrw9uD7/fakyiKtzwDb6bB3tgDM4/Pu9djh7b2710m31T2y0izD3GLN4ovH33/9/vmdyUrJ36d4rt6RvOOhyuq20+1Gm9fE3fF+tODY6J/b7K3D2m+82lbE3mne7LnS5ZXk78qbx1OIvyC/25XC3pCdwuaoz2iw03adyz2NwS621oSgy06nzmDB3J51s9+auuFqn9mjAO+CAAAOaUlEQVR4nO2diX+aSBvHg6mjAxpuQzySWBNz2TZFEJqkqc2WHrvdJv//X/MOlzIw4AEI2Zffp7vb5Rj5+jzzzMEz495epUqVKlWqVKlSBhoe2zoNyzk6LPrh0mh4Mb88Q/p0P3l4uLq+vt6/ubk5uhmNbmxdX19dPUw+3386uzs7u5xfvC7U4d27+/v7ydX1/pGvfZKWZ6+vJuiOd3dl50SeePHlAVkpgSpO7i3IwA+fLpAHY+UeFMRjf/Tys48vz+4m10ejDcFIqKOb6wny3FLZ8/jd/WR/U6slYx7tT+7flQPy9GLiuGVmdAHM0ehzyGF3ruPHL9ejHOCWlKOrTwX66/H7yU2eeB7k/uR9MXiX1+nDylq6Qe56Nd+1IYdnk9Eu6HwdjT5fftgl4OXk6GaXgPuOs17sjO/ic67RJZZx9P50N4Dz3VQ/EuP1fBeAZ7v2TwzxMn/AT6PiAJFGj3n3Uy+LBUSIOceb44ei6qCvo/t8Ce+KBkSIZ3kCDt+XgPAuT8LinRQRfs5zuHE8KQHhBCNMF1jrkdu/lIDwS/ihDupbE/Yit56VgDASaeq97Qm74SPDwt306HNojHGwJ6Qg1CKH5qMNn8iZHb15S5JzZlPC0TzyTINtCQ/26g38/23drYnoQJ34ekPS4qyDuyYgoTX8s70N651x9ODlfpKjOvZCROfnRKh4oRts1GSrHu0Tet7d5vaRpt55IRydx03OuEbbkCxq2HiDRkdPtl+p/RSEzVqbcPj0PjoCvskALoh5EqWMGQEbrUYaQp6OhFNb8+AkG/LL7NiWQl77NuCyRzfkWQxBplMRAp7s5B8evZkMu9blgOfrxPPYo9H9I3kmSqFhOsKaZJLPDecPo6O3GXpmLOTJ26PRQ9xs4pSmqJSENV6NC8bDb1+fNg2Zm+v86eu3uInE3hRSVFobMjVeYeMu+DD/6/ZNnpDnb77+O4+dKO2pdAaESHxTIJ+3Y/Xx6befm7d+68ChQm//ct/MHEQ/F0lQkItmQljja1ZyIRffvt8+ZWjM8zdPt9//ugjiRB9Og5DKgpCp2X9ENcaMC51efvx+e3Ke2pqohJPbHx/nq4a5gsnZhNl4qS1AWysvHx6fXpz9+Gljbk7q3nTy88fj6ekaKRqa7OJl5KUOoigb6/Zwj+d3f//4/vX2l9NBjcM9906dnPy6/fr9x7eztd8v9cYNzqXLkhDVRkYxNilreDq/fPz48V8E+/v3P//c/vz56+kJ9ceenn79vL395+vv399//P3vx4+Pl/PTtdi8Glk31NaSL0tCxMj1B5uX8mHo5gwFsobc/x0Oh1u8MWsrMk1ROREC5KucJmxfYGoJmsxBSOVEyLiUEm3qqwJrPhLaU8RHQQrmRAg8TiAxlEoccuQqYdpv2V0YKj8bBmH5Q87qxnbmMhfbRd5Jh9HyJKwxAEi1zvNO3FUwrAZFk+lyJHSrJEO9mKFZgIM0k9DRew1L6bciwWUHhP5xAHhRpBu6kGLOkqweK7T/yBzyTRq2Ft2X3RGGaqUIKOVZH2dVMdmubqkzmGy6vG3I+O7KeI0IzwO601Sng3RVkzU0s9GXKdqPK6shd2DDBTaSJIoiN1O1sSAILLveR/d6LCsIXYRmeyVCC7d4pSH0zYoqpyQCjpL7imlZmqbrbcMYd7sI2RcCGo+NdlvXdW1qKo1ZC3JrOmXBhAyz/DuyKM9LPCqCcUxDdZCafVczGanVoiBNO1aDFAonrVdAGHs98MRBTM4Tuv9sZ8CdE9YY4l+Xh2jyU25nvUIIVwjEEKbhLBdhjU5jrYqwIqwIK8KKsCKsCCvCirAirAgrwoqwIqwIK8KKsCKsCCvCirAirAgrwoqwIqwIK8KKsCKsCNfQ+l8E3do6q6QQQuCmlATzSgg5JoGj4PXYkPHSnwCQJPHQlShKPEj8TgDP0dxCfsYQyaqRvKJibAh4pvliGl0vt7RraGqzw8RBAr5GNacDL3la6A7Mhhz7+H1loYZcGCHPqXokcZbVn8l38Zyih/Pfu5pCtmDLWF7UayQbMTdCIKpuYnAkdXksEvhEk7hOozeecVEA2GovC2Z3T8jYgYNvGnG3dSOEgFPj84eNvruMMEK4VxChtySxEf/IOCGqlnwn9ttwEMxwbmKxhM5TSwmAERtKLysyoxeLJctDyL8kFRoi5Kfe8YR1Cm28I1A8YS3RKCHCmOXuuAatUnmps0Y/3iIYodRIWomxLMQKZp4WTQggXglZw2woDcVqC2yEkCdsy1HvRTcvcvcOKAchwywqliurJfG2JKkmT+1VpktCpsaHIxLbtqamalqRJVP1QI+1aBsyevAiTQosFuY51EwKS0JxUQk9fzT7LTs5n6apvrk84ZzUl0YsmBDA4L48emjoBKT+QPItCJq4CXVmuagC0hBfcttTFyRFE3aCj/0sBZdYOFUvztp7GoNlskOI70NlLOJp0YTN4CVqEMgbUJG/i70BOrMgdFeDYkv7en3opesXTRjcWqkXJAxLwmxkMCA8iwFlLN4MuFLYEABsUx6L9+ociTDYFPb69pWhMT49XZaFwk05CEO+16UBEwMI5GBhuvNVhAhhCzPiDJaDEIulTu2KcVIszkBAIKQg1qfz3bRowlooQtI80YaACdpHOKwRCalgUUI5bFjjTbzIrnIICIhADnqz6X4Nkbk2LugQglwOQsCFe1xGn4nakVeDn9x0v4QIIbYrDKvAMhAyhP2/6kYjMi0sPQcuEDqA6KUUVIPFmHQZCG3zRMeHPZ0WQ1cHq6vB1YiEEPaDvqyVgdB2Nr5DGvRpHSysYl02vUYmpEpI6EAC4jwNawVdlQtOP+lMHOEs6A/lIHR6n6BPvGPckvzLAB2MklqcDSkZG6lQZSB0JcnEDVzqpt9PxQm9zl2EsIUTlsOGPgEV3YPXlglIhDFeCqkSE6IqR5zI9q0YIvQGj6+iHi7FS0RG066LDOCCg7/4SBOMpQfT8hB6DyxRU0LTSDu3odZiOVk4puNa/OBsY88sRZ8Gd1VATyNto+ZMRYFgPWXj+jR0sE9Tkl5bmFECVoiRle2mH+u17b3EEQa/h7L0vCMSG6FdsZ/tYMMrQXBNIhNywUZHoEtKiKKKY4lFtXP6aAAbv/fI40MKmwcYlJUQ0RxijaMbV0TsrWGDNIuBO2lZZjGiJrQRqaDBXEI+GET2DJINITZK7pVkJorkpQw+VnJHg4DDSnOayTAhZsKSzCbaXe/wYSYUOb22QVxM29s1lG3yYUIamwbYU/wNolYR4pOuOcwmap3oNDAfnI3o2l6Kxlj4q7UuB/CsLxobG+61Fw9e9Fxbh+3J/njev4BhoiN6Bh8iHqDDUvAlIdfH+kM9dTnlXzghqjJNB24x+yRhb/Z17yTfx/sCqFfmp3rRUF7WQaeZMZLeruFZYFhiQ15z3j2tX5OAm7rH8Dz2Gu3AGV440x3hEZZhNVp2SpusaqHxZW8GYwgVOSqYPyH6ZMGSxUMR6ZDSsAqFem2eAwPGN+Jix0hWcBTpzMa+5fbvCIjV6F0Quuoihe9rSwv35WUbZY39MAdBz8MJSVdzuyMkCQZuA+pan2/IWNUqOaElYderyVc7EhIyhkgqllDz9m/1rxdXWvHACOVGl5twQIVf04BG8r7KvWk4+bvUhFqNx95gOG0GnfTAXSWyEV/RhNQYLzIQKQ1KItxRA9JsTE7+qgsqYRPk1YS5thZ2Pixxg322bYKYF8IA8GqbYHpBbZF2UlzHhjBHQmQSrqOGkmLrhtlhEvIyUOPfMSOJtCzJgkgtLdLKY8q3xfdsIh4ysmppmmZZU2XGHYq8e3FkaLW8Cd0z+zMdYJM6GhERBhYtkEQHUorzeEO6fGTJEe/D1WKyMvwbmRoNIW0n4i/r7pSUrb96w90cCeMSownfQBjQyxjCU0wOtJTrhMq4sgt/V7HXhjDNJrTlI3R+/AZPeJPTmLF8hLZoBfugcK/tP0BIcaoXa9z/CMRm8VUTUtQUe67xismYV0XYciBhKENYmG2LWD5CX+4b1EXDaOfP/scIoYx34lh1u431S0sIUbOI98V70WHUqyaknM4NPoW2VV0sMyFCjJ8G/W8QUv6PdSSseX7lhFmoIqwIK8KKsCKsCCvCirAirAgrwoqwIqwIK8K1CLOFzJwQ/l/YcGtAe/Fu6W1IQaisBonRwZ5KzB0pF2FoSf+GspeBJLyYLwchN1gNEmdCdxlIpog5eCnXWye7M04Kn60JMyV054/pNE7qpteXmzC0AczmmoJs3TT79pC8VncDZRxOsybk0vmoLRbyWTpqxoRwlrTf3Zoac0n5eMUS0uQl85tKaC4cNX2NzI6wBSm6kTLK+GJf+Fp00+diCe04Sids+7opounXRSYtY3Y2hNBeYp2ircc1pjIKN5nZEPYzqYJLsWZ8ZmwBhLA1ZbOzn6v6mBMzCKqZEEIumxgakbfDTqqquD3hMnMdNrYeTawSa/UDzf9WpFsTLrM2lOg26VkyGi0xVR8nnZdCmvMWbmRcBxeyy+2qdPLPA+RFCOlWf7HPSE6EXrFdqw+kLSG391JanrYz6sKs4LPFdqfwcMUvPWRHCB3v1IW8PDNOrPVC10h1MjECrSJcbD/vXwchTcmqlln/bDONdbPDSIvlJOsE181sCCGH6l47n8ZvPdVZoa1SosiHXDbWf9cjtNej0zTHzUxDKMh6IRlTpUMzQcw4xCTClm84FDXlhqmNV39wjorUenasPyt9GkhSYnuZaEPHcNCGa3fzbNW3V48VBGROGTg/qoMsGl2OGMqgXcj2SQ7O/mhjQWAXb1p2HT03UHcwNZWXZodCD47GlADw3s70nA1j78mO/gWplp0jPOs3FHWqRbahfxViu2Oj3dZ1zbKen00VSVFMW1NL03RdbxuGMS5JLMlAB/ZvIrh/6jt0v/8BogoHZKqyM5cAAAAASUVORK5CYII=;clipPath=inset(0% 12.22% 0% 10.44%);" vertex="1" parent="1">
          <mxGeometry x="1084" y="383.44" width="81.2" height="105" as="geometry" />
        </mxCell>
        <mxCell id="JtUT9d7o_ifUqy7GnOw--8" value="&lt;font color=&quot;#ffffff&quot;&gt;&lt;span style=&quot;font-size: 14px;&quot;&gt;&lt;b&gt;SQL Server Instance&lt;/b&gt;&lt;/span&gt;&lt;/font&gt;" style="text;html=1;resizable=0;autosize=1;align=center;verticalAlign=middle;points=[];fillColor=none;strokeColor=none;rounded=0;labelBackgroundColor=none;fontSize=13;fontColor=#000000;" vertex="1" parent="1">
          <mxGeometry x="1065.6" y="346" width="155" height="29" as="geometry" />
        </mxCell>
        <mxCell id="JtUT9d7o_ifUqy7GnOw--9" value="" style="endArrow=classic;html=1;rounded=0;fontSize=14;fontColor=#FFFFFF;exitX=1;exitY=0.5;exitDx=0;exitDy=0;exitPerimeter=0;entryX=0;entryY=0.5;entryDx=0;entryDy=0;strokeColor=#0000CC;" edge="1" parent="1" target="JtUT9d7o_ifUqy7GnOw--6">
          <mxGeometry width="50" height="50" relative="1" as="geometry">
            <mxPoint x="1010.5" y="435.5" as="sourcePoint" />
            <mxPoint x="1070" y="435.5" as="targetPoint" />
          </mxGeometry>
        </mxCell>
        <mxCell id="JtUT9d7o_ifUqy7GnOw--10" value="" style="endArrow=classic;html=1;rounded=0;fontSize=14;fontColor=#FFFFFF;entryX=0.5;entryY=0;entryDx=0;entryDy=0;strokeColor=#0000CC;" edge="1" parent="1" target="JtUT9d7o_ifUqy7GnOw--6">
          <mxGeometry width="50" height="50" relative="1" as="geometry">
            <mxPoint x="1119" y="305" as="sourcePoint" />
            <mxPoint x="1094" y="445.94000000000005" as="targetPoint" />
            <Array as="points">
              <mxPoint x="1119" y="305" />
            </Array>
          </mxGeometry>
        </mxCell>
        <mxCell id="JtUT9d7o_ifUqy7GnOw--11" value="&lt;font color=&quot;#ffffff&quot;&gt;&lt;span style=&quot;font-size: 14px;&quot;&gt;&lt;b&gt;ERP instance&lt;/b&gt;&lt;/span&gt;&lt;/font&gt;" style="text;html=1;resizable=0;autosize=1;align=center;verticalAlign=middle;points=[];fillColor=none;strokeColor=none;rounded=0;labelBackgroundColor=none;fontSize=13;fontColor=#000000;" vertex="1" parent="1">
          <mxGeometry x="1076" y="282.19" width="107" height="29" as="geometry" />
        </mxCell>
        <mxCell id="JtUT9d7o_ifUqy7GnOw--13" style="edgeStyle=orthogonalEdgeStyle;html=1;startArrow=none;startFill=0;startSize=10;endArrow=none;endFill=0;endSize=10;strokeWidth=3;fontSize=11;fontColor=#FFFFFF;strokeColor=#000000;dashed=1;rounded=0;" edge="1" parent="1">
          <mxGeometry relative="1" as="geometry">
            <Array as="points">
              <mxPoint x="1165" y="449" />
              <mxPoint x="1198" y="449" />
              <mxPoint x="1198" y="417" />
            </Array>
            <mxPoint x="1163" y="449" as="sourcePoint" />
            <mxPoint x="1283" y="417" as="targetPoint" />
          </mxGeometry>
        </mxCell>
      </root>
    </mxGraphModel>
  </diagram>
</mxfile>
